<svg xmlns="http://www.w3.org/2000/svg" viewBox="0 0 222.15 222.15"><defs><style>.cls-1{fill:#003654;}.cls-2,.cls-3,.cls-4{fill:#fff;}.cls-2{opacity:0.78;}.cls-4{opacity:0.93;}</style></defs><g id="图层_2" data-name="图层 2"><g id="图层_1-2" data-name="图层 1"><rect class="cls-1" width="222.15" height="222.15"/><polygon class="cls-2" points="51.25 150.25 79.84 145.47 79.84 114.41 72.74 113.22 79.84 112.04 79.84 71.11 60.98 67.96 79.84 64.81 79.84 48.37 48.37 48.37 48.37 84.92 64.11 87.55 48.37 90.18 48.37 128.22 59.38 130.06 48.37 131.9 48.37 173.77 79.84 173.77 79.84 155.02 51.25 150.25"/><polygon class="cls-3" points="109.22 155.25 126.81 152.3 126.81 128.41 119.71 127.22 126.81 126.04 126.81 76.11 103.94 72.96 126.81 69.14 126.81 48.37 95.34 48.37 95.34 101.92 111.07 104.55 95.34 107.18 95.34 173.77 126.81 173.77 126.81 158.18 109.22 155.25"/><polygon class="cls-4" points="173.77 48.37 142.3 48.37 142.3 62.04 149.4 63.22 142.3 64.41 142.3 90.81 161.17 93.96 142.3 97.11 142.3 125.47 170.89 130.25 142.3 135.02 142.3 173.77 173.77 173.77 173.77 151.9 162.77 150.06 173.77 148.22 173.77 80.18 158.04 77.55 173.77 74.92 173.77 48.37"/></g></g></svg>